<?xml version="1.0" encoding="UTF-8"?>
<svg id="Layer_1" data-name="Layer 1" xmlns="http://www.w3.org/2000/svg" viewBox="0 0 313.397 175.133">
  <defs>
    <style>
      .cls-1 {
        fill: #f0efef;
      }
    </style>
  </defs>
  <g>
    <path class="cls-1" d="M134.848,2.67c25.738-.089,51.434-.991,77.177-.999,25.958-.009,51.915-.012,77.873-.037,7.835-.007,15.668-.015,23.499-.061v-.488c-22.063-.167-44.147-.066-66.211-.075-25.838-.01-51.644-.061-77.47.445-12.923.254-25.847.514-38.78.519-12.689.005-25.347-.582-37.99-1.122C80.371.315,67.827-.072,55.211.011c-12.485.083-24.939.527-37.416.72C11.853.823,5.877.737,0,1.059v.598c6.909-.313,13.987-.1,20.789-.285,12.755-.347,25.527-.636,38.298-.676,25.312-.081,50.442,2.062,75.761,1.974Z"/>
    <path class="cls-1" d="M66.699,5.31c25.584,1.55,51.379,1.557,77.063.999,25.709-.559,51.365-1.69,77.047-2.52,12.873-.416,25.57-.407,38.428.192,12.749.593,25.422,1.564,38.215,1.829,5.311.11,10.627.136,15.944.125v-.496c-6.61-.001-13.219-.026-19.827-.185-12.759-.307-25.428-1.342-38.152-1.916-25.606-1.155-51.374.469-76.944,1.358-25.68.893-51.402,1.585-77.137,1.224-12.858-.18-25.704-.654-38.481-1.491-6.429-.421-12.784-.896-19.265-.993-6.438-.096-12.881.083-19.297.377C16.15,4.185,8.081,4.855,0,5.469v.359c2.952-.156,5.906-.316,8.858-.499,6.425-.398,12.845-.793,19.297-1.031,6.425-.236,12.865-.31,19.297-.135,6.45.176,12.833.758,19.248,1.146Z"/>
    <path class="cls-1" d="M149.041,38.023c2.016.063,4.179.412,6.112.721,2.509.402,5.23.933,7.301,1.851,2.272,1.008.275,1.967-1.707,2.407-2.533.561-5.397.655-8.09.671-2.3.014-4.688-.067-6.904-.434-3.947-.654-4.323-3.104-1.202-4.424,1.634-.691,4.279-.489,6.221-.47,1.115.011,2.388.131,3.484.245.969.101.682-.062.231-.116-1.8-.215-3.596-.443-5.401-.646-.22-.025-.314.165-.093.189,1.913.215,3.991.57,5.937.621.112.003.127-.089.026-.106-3.602-.621-7.976-1.562-11.361-.107-2.121.912-2.912,2.494-1.759,3.849,1.044,1.228,3.765,1.63,5.948,1.795,3.107.235,6.265.203,9.368-.036,2.868-.221,10.34-1.513,6.268-3.745-1.877-1.029-4.735-1.54-7.18-1.957-2.27-.387-4.873-.823-7.247-.504-.2.027-.144.187.046.193Z"/>
    <path class="cls-1" d="M134.205,41.601c3.385,4.363,11.982,4.759,19.456,4.282,5.189-.331,10.137-.675,15.384-.425,3.481.165,7.897.236,9.681-1.821,2.52-2.906-7.349-4.793-10.615-5.476-4.999-1.045-9.935-1.918-15.25-2.304-5.39-.392-10.824-.52-15.697,1.052-1.458.47-2.357,1.28-3.163,2.082-.706.703.001.592-.863.407-.901-.193,1.01,2.134,1.067,2.203.068.083.284.011.217-.071-.494-.607-1.251-1.301-1.358-1.983.003.021.316.16.37.196.053.036.172.026.208-.015.512-.573,1.121-1.579,2.429-1.692.624-.054,1.621-.568,2.198-.748,2.453-.767,5.444-1.006,8.204-1.023,5.352-.032,10.898.619,15.995,1.49,3.008.514,6.042,1.182,8.919,1.904,2.28.573,5.759,1.429,6.43,2.93.463,1.036-1.695,1.839-3.122,2.107-1.925.361-4.16.187-6.139.099-4.593-.203-9.09.007-13.624.398-7.408.64-16.345.435-20.511-3.663-.082-.081-.28-.01-.217.071Z"/>
    <path class="cls-1" d="M128.884,42.026c1.302,2.261,3.623,4.029,7.103,5.401,3.89,1.533,8.432,1.829,13.06,1.75,6.215-.105,12.334-.839,18.564-.825,4.442.01,8.836.521,13.251.741,5.588.278,17.898-.077,16.322-4.918-.601-1.847-3.694-3.405-6.2-4.486-3.448-1.488-7.32-2.518-11.382-3.37-6.754-1.416-13.892-2.106-20.922-2.933-5.368-.632-10.779-1.197-16.286-1.04-5.08.145-10.235,1.155-13.36,3.515-1.354,1.022-1.904,2.585-1.621,3.831.177.777.992,1.612,1.472,2.334.059.088.308.053.255-.039-.436-.754-.914-1.509-1.265-2.278-.063-.137.309-1.01.546-1.215.188-.162.225-.508.311-.696.219-.473.641-.899,1.104-1.307,2.746-2.42,8.334-3.235,13.105-3.385,4.66-.146,9.374.323,13.928.818,5.461.594,10.935,1.161,16.31,1.972,5.086.768,10.196,1.786,14.665,3.374,3.212,1.141,6.903,2.753,8.087,4.871,1.581,2.829-4.891,4.09-8.649,4.316-4.412.265-8.917-.168-13.285-.481-3.874-.277-7.697-.338-11.595-.167-4.959.217-9.864.689-14.847.733-8.309.073-14.809-2.417-18.429-6.573-.066-.076-.287-.022-.241.057Z"/>
    <path class="cls-1" d="M140.989,36.314c-3.434-.18-7.495,1.387-7.92,3.412-.389,1.852,2.617,4.373,5.926,4.769.11.013.192-.059.111-.107-2.036-1.188-4.588-2.301-5.002-4.063-.501-2.139,3.786-3.554,6.917-3.879.142-.015.093-.125-.032-.132h0Z"/>
    <path class="cls-1" d="M132.289,34.448c-3.974,1.148-5.587,3.417-4.996,5.849.299,1.232,1.3,2.409,2.438,3.46,1.318,1.218,2.974,1.994,5.148,2.683.044.014.098-.022.056-.041-2.932-1.302-5.229-3.772-6.166-5.77-1.134-2.421.448-4.448,3.665-6.076.105-.053-.029-.139-.145-.106h0Z"/>
    <path class="cls-1" d="M138.829,36.638c-1.445-.02-2.2.077-3.215.723-1,.637-1.588,1.527-1.919,2.344-.383.947-.261,1.755.588,2.606,1.055,1.058,2.911,1.37,4.524,2.033.041.017.085-.019.052-.038-2.129-1.233-4.651-2.538-3.929-4.41.382-.991,1.639-3.062,3.899-3.11.17-.004.17-.146,0-.148h0Z"/>
    <path class="cls-1" d="M139.812,36.405c-3.585.01-4.869,2.427-4.934,4.068-.038.979.71,1.986,1.807,2.732.714.485,1.493.91,2.378,1.295.9.392,1.622.467,2.682.734.071.018.131-.036.062-.06-2.6-.902-5.33-2.629-5.699-4.374-.178-.84.171-1.728.779-2.492.628-.789,1.927-1.21,3.033-1.756.103-.051.019-.148-.108-.147h0Z"/>
    <path class="cls-1" d="M134.411,38.587c-.117,1.129-.725,2.887,1.625,3.399.145.032.249-.071.187-.137-.577-.615-.778-1.253-.85-1.937-.054-.512-.051-1.012-.795-1.363-.066-.031-.162-.011-.168.039h0Z"/>
    <path class="cls-1" d="M135.633,41.543c-.256-.467-.409-.96-.586-1.439-.231-.623.266-1.264.792-1.799.077-.079-.092-.198-.24-.134-.983.424-1.559.83-1.64,1.545-.081.723.836,1.3,1.404,1.89.08.083.319.026.269-.064h0Z"/>
    <path class="cls-1" d="M139.387,36.427c-1.981.343-3.421.593-4.689,1.577-.858.666-1.986,2.245-1.037,2.985.142.11.376.105.52,0,.479-.351.373-.766.493-1.194.128-.459.408-.9.791-1.309.754-.808,2.489-1.623,3.986-1.929.143-.029.086-.156-.064-.13h0Z"/>
    <path class="cls-1" d="M160.263,36.983c-7.041-1.1-19.192-3.011-23.955,1.436-2.012,1.879-.914,4.193,1.678,5.685,1.437.827,3.476,1.29,5.426,1.582,2.776.415,5.193.055,7.984-.026.032,0,.032-.027,0-.028-2.135-.062-4.522-.22-6.638-.429-1.718-.169-3.34-.554-4.791-1.091-3.512-1.302-4.376-3.882-2.058-5.811,2.256-1.876,7.193-2.02,10.802-1.975,3.787.046,7.79.327,11.492.777.138.017.196-.098.059-.12h0Z"/>
    <path class="cls-1" d="M159.274,34.018c-1.707-.385-3.239-.79-5.044-1.055-1.805-.266-3.66-.432-5.511-.556-3.815-.255-7.757-.039-11.379.681-5.76,1.145-10.573,3.913-9.669,7.524.785,3.138,5.737,5.692,10.391,7.165,6.811,2.155,14.775,1.583,22.019.496.185-.028.146-.187-.045-.186-6.904.028-13.436,1.094-19.988-.647-4.678-1.243-9.141-3.523-10.64-6.374-1.922-3.654,3.842-6.414,9.408-7.483,6.416-1.233,14.058-.495,20.411.527.109.018.146-.071.046-.093h0Z"/>
    <path class="cls-1" d="M163.637,31.678c-6.231-.37-12.321-1.229-18.531-1.684-4.518-.331-8.774-.139-13.117.648-7.008,1.27-15.177,4.432-16.091,8.888-.813,3.964,7.168,6.677,12.369,8.298,7.592,2.366,15.365,4.675,24.113,5.216,4.947.306,9.95.037,14.855-.356,6.21-.498,12.269-.926,18.56-.914,4.973.009,10.05.496,14.923-.266,3.305-.516,6.616-1.942,7.565-3.854,1.74-3.507-5.856-6.652-10.214-8.285-3.213-1.204-6.667-2.051-10.201-2.909-5.584-1.357-11.215-2.658-17.008-3.709-9.54-1.73-19.995-2.574-30.002-2.8-.753-.017-.748.635,0,.655,12.28.322,24.537,1.682,36.035,4.11,8.528,1.801,17.621,3.653,24.65,7.021,2.552,1.223,5.388,2.88,5.628,4.864.33,2.734-5.551,4.214-9.5,4.505-2.316.171-4.687.087-7.01.013-3.119-.099-6.238-.111-9.36-.054-5.9.108-11.609.738-17.451,1.116-4.935.319-9.919.339-14.812-.177-4.941-.522-9.333-1.718-13.76-3.002-6.06-1.757-13.982-3.51-17.232-7.128-1.897-2.112-.028-4.4,2.394-6.092,2.892-2.021,7.124-3.426,11.387-4.338,10.283-2.2,21.266.052,31.809.376.164.005.158-.132,0-.141h0Z"/>
    <path class="cls-1" d="M144.262,30.358c-1.469-.079-2.688-.283-4.188-.24-1.339.038-2.681.177-3.99.332-3.054.361-5.98,1.025-8.711,1.865-4.54,1.396-9.48,3.837-10.263,6.868-.681,2.634,2.863,4.79,6.264,6.29,4.657,2.054,10.137,3.466,15.375,4.965.032.009.057-.016.028-.027-2.357-.88-4.59-1.813-7.025-2.632-1.913-.643-3.801-1.335-5.631-2.05-3.561-1.391-7.62-3.324-7.698-5.964-.09-3,5.529-5.438,9.64-6.79,2.431-.799,5.088-1.37,7.8-1.784,1.379-.21,2.794-.35,4.212-.444,1.339-.088,2.857-.306,4.188-.256.155.006.151-.126,0-.134h0Z"/>
    <path class="cls-1" d="M176.006,32.06c-2.905-.447-5.736-.988-8.681-1.384-3.198-.43-6.42-.806-9.629-1.209-5.832-.732-11.581-1.625-17.554-1.922-9.833-.488-18.972,1.533-26.638,4.89-6.235,2.73-11.399,6.875-9.365,11.496,1.948,4.428,9.095,7.27,16.055,9.081,7.917,2.061,16.904,3.387,25.496,4.166,12.024,1.09,24.028.176,36.106.147,6.228-.015,12.454.124,18.675.279,3.805.095,7.546.155,11.342-.056,6.234-.346,13.606-1.28,17.417-4.343,3.473-2.791,1.603-6.414-2.034-8.798-4.449-2.916-11.256-4.614-17.469-6.004-7.914-1.771-16.128-3.133-24.167-4.711-5.325-1.045-10.648-2.105-16.173-2.766-5.109-.611-10.359-.989-15.279-2.001-.727-.15-1.021.491-.317.645,5.355,1.168,11.044,1.571,16.629,2.267,5.999.748,11.816,2.006,17.61,3.138,8.516,1.664,17.289,3.041,25.517,5.138,6.506,1.658,14.475,4.162,16.025,8.443,1.705,4.712-6.408,7.045-13.248,7.873-8.849,1.071-18.105.348-27.048.223-6.285-.088-12.574-.061-18.85.151-6.077.205-12.108.342-18.19.091-9.534-.393-19.296-1.821-28.216-3.754-7.976-1.728-16.16-4.509-18.639-9.402-3.511-6.927,11.131-12.427,20.826-14.477,7.979-1.686,16.45-.978,24.528.061,4.189.539,8.378,1.058,12.586,1.55,4.159.486,8.459.849,12.557,1.446.299.044.425-.213.127-.259h0Z"/>
    <path class="cls-1" d="M140.458,22.806c-14.05-.789-28.953,2.497-39.795,7.418-5.062,2.297-9.511,5.3-11.179,8.896-1.684,3.63.461,7.333,4.46,10.231,5.479,3.969,13.516,6.818,21.405,9.052,8.633,2.446,17.907,4.149,27.288,5.424,9.255,1.258,18.719,2.04,28.209,2.454,4.847.212,9.722.365,14.575.143,5.455-.249,10.801-.973,16.038-1.837,5.39-.888,10.689-1.94,16.09-2.809,4.021-.647,8.105-1.084,12.222-1.486,8.327-.814,17.106-1.506,24.569-3.881,5.828-1.855,11.188-5.636,8.644-9.56-2.347-3.62-9.713-5.824-15.613-7.249-9.263-2.238-19.539-3.001-29.359-4.103-5.769-.647-11.501-1.392-17.083-2.444-5.751-1.084-11.182-2.654-16.753-3.992-10.721-2.576-21.801-4.783-33.342-5.844-10.235-.941-22.341-1.188-31.939,1.349-.616.163-.08.663.529.509,5.232-1.321,11.613-1.596,17.275-1.684,6.025-.093,12.047.314,17.945.982,11.781,1.334,23.055,3.859,33.995,6.598,5.269,1.319,10.443,2.606,15.993,3.52,5.642.929,11.429,1.557,17.196,2.186,9.531,1.038,19.342,1.942,28.101,4.405,6.034,1.697,14.059,4.813,12.102,9.21-2.164,4.862-12.42,6.859-20.032,7.919-8.428,1.173-17.097,1.625-25.458,2.971-11.015,1.774-21.666,4.223-33.235,4.592-9.482.302-19.386-.466-28.718-1.335-9.747-.908-19.375-2.283-28.621-4.246-9.017-1.913-17.726-4.483-25.13-7.976-5.923-2.794-10.959-6.601-10.482-11.143.629-5.982,10.483-10.48,18.991-13.232,4.984-1.612,10.377-2.826,15.933-3.654,4.87-.725,10.136-1.266,15.179-1.032.405.019.396-.329,0-.352h0Z"/>
    <path class="cls-1" d="M164.921,1.476c-3.676.289-7.486.329-11.198.559-3.797.234-7.602.428-11.41.585-7.442.308-14.765.401-22.188-.085-7.23-.473-14.379-1.273-21.636-1.627-6.824-.333-13.929.322-20.672-.375-.263-.027-.37.179-.111.226,6.194,1.133,12.897.555,19.318.829,7.509.32,14.92,1.14,22.385,1.666,7.674.54,15.211.42,22.905.082,3.812-.167,7.615-.39,11.41-.647,3.809-.258,7.485-.782,11.249-1.108.122-.011.069-.112-.051-.103h0Z"/>
    <path class="cls-1" d="M142.991,2.333c-3.691-.455-7.669-.261-11.426-.262-2.038,0-4.075-.001-6.112-.002-1.797,0-3.603-.082-5.341.211-.228.038-.228.221,0,.259,1.738.293,3.544.212,5.341.211,2.037,0,4.074-.001,6.112-.002,3.758-.001,7.735.193,11.426-.262.135-.017.135-.136,0-.153h0Z"/>
    <path class="cls-1" d="M142.533,1.912c-1.889.298-3.788.345-5.74.317-1.572-.022-3.943-.386-5.376.039-.192.057-.186.224,0,.283,1.517.473,4.245.26,5.94.252,1.749-.009,3.966-.052,5.277-.793.074-.041,0-.114-.101-.098h0Z"/>
    <path class="cls-1" d="M139.026,2.325c-3.666-.117-7.331-.185-10.996-.019-.237.011-.237.196,0,.207,3.665.166,7.33.099,10.996-.019.194-.006.194-.163,0-.169h0Z"/>
    <path class="cls-1" d="M313.397,5.165c-2.138.053-4.277.103-6.418.138-8.312.137-16.64.043-24.944-.188-8.039-.223-16.067-.632-24.054-1.192-3.815-.267-7.635-.468-11.474-.579-4.146-.12-8.288.004-12.441-.084-.075-.002-.075.063,0,.065,7.879.242,15.989.429,23.769,1.206,7.946.793,16.152,1.052,24.2,1.29,10.448.308,20.915.318,31.362.072v-.728Z"/>
    <path class="cls-1" d="M257.988,4.465c3.381.531,7.522.841,11.031.678.585-.027.776-.516.145-.601-1.686-.228-3.383-.392-5.103-.512-1.691-.118-3.698-.332-5.337-.026-.304.057-.297.284,0,.342,1.437.282,3.084.188,4.597.262,1.874.092,3.724.28,5.553.524.048-.201.097-.401.145-.602-3.649.176-7.461-.689-11.031-.205-.126.017-.12.121,0,.14h0Z"/>
    <path class="cls-1" d="M275.695,5.219c-2.899-.052-6.247-.546-9.069-.016-.132.025-.132.125,0,.149,2.823.53,6.171.035,9.069-.016.134-.002.134-.115,0-.117h0Z"/>
    <path class="cls-1" d="M276.481,4.769c-3.205-.066-6.287-.831-9.461-.225-.149.028-.109.135.035.145,3.14.234,6.27.214,9.426.214.155,0,.154-.131,0-.134h0Z"/>
    <path class="cls-1" d="M10.473,4.953C7.017,5.121,3.471,5.275,0,5.6v.883c3.691-.333,7.406-.579,11.155-.761,7.008-.341,13.98-.863,20.999-1.147,7.041-.285,14.11-.361,21.161-.159,3.638.104,7.24.417,10.851.672,3.762.266,7.459.367,11.239.463.124.003.121-.101,0-.107-7.404-.339-14.669-1.434-22.089-1.759-7.281-.319-14.615-.176-21.891.118-7.001.283-13.959.809-20.951,1.149Z"/>
    <path class="cls-1" d="M102.244,22.912c-4.397.62-8.611,1.359-12.218,2.955-3.92,1.735-5.611,4.178-7.199,6.74-1.538,2.482-4.053,5.854-9.735,5.013-1.769-.262-3.44-.705-5.206-.977-2.497-.384-5.239-.38-7.806-.41-6.198-.073-12.387.322-18.572.487-8.53.228-16.945-.4-25.412-.882C10.762,35.536,5.333,35.282,0,35.533v.713c8.413-.28,17.021.49,25.291.973,5.918.345,11.77.483,17.715.309,6.181-.181,12.343-.534,18.539-.423,2.494.045,4.943.158,7.325.592,1.727.314,3.402.779,5.219.909,4.183.298,6.901-1.57,8.582-3.492,2.291-2.619,2.973-5.537,6.661-7.734,3.561-2.122,8.432-2.954,13.311-3.652,3.824-.548,7.268-1.725,10.8-2.682,4.298-1.165,8.716-1.606,13.462-1.727,4.487-.114,8.992.106,13.457.33,4.712.236,9.263.323,13.979.27.186-.002.186-.159,0-.162-6.137-.109-12.325-.763-18.448-1.06-5.939-.288-12.195-.376-18.007.483-5.518.816-10.114,2.955-15.643,3.734Z"/>
    <path class="cls-1" d="M300.465,47.446c2.928-.544,5.837-.686,8.887-.831,1.351-.064,2.699-.154,4.045-.253v-.804c-.849.063-1.699.125-2.553.179-2.58.164-5.162.181-7.712.475-2.683.309-5.257.889-7.793,1.456-4.945,1.105-10.287,2.383-15.734,1.944-4.707-.38-8.305-2.426-11.308-4.332-6.204-3.936-11.901-8.086-20.89-10.067-5.676-1.251-11.852-1.984-17.72-2.904-6.174-.968-12.345-1.942-18.472-3.002-12.47-2.157-24.553-4.944-36.983-7.17-6.012-1.077-12.115-1.984-18.327-2.614-2.89-.293-5.802-.515-8.725-.673-1.669-.09-3.343-.142-5.018-.177-1.495-.031-2.851.202-4.315.219-.146.002-.147.128,0,.128,1.208-.004,2.955.154,4.169.257,1.216.104,2.503.085,3.732.142,3.298.152,6.577.43,9.826.78,5.953.64,11.807,1.561,17.588,2.575,11.701,2.052,23.052,4.675,34.722,6.778,12.158,2.191,24.531,4.036,36.815,5.989,9.889,1.572,16.142,6.148,22.597,10.303,2.876,1.851,6.141,3.577,10.39,4.337,4.909.878,10.479-.105,15.08-1.088,2.567-.548,5.087-1.159,7.697-1.644Z"/>
    <path class="cls-1" d="M313.397,39.855c-4.971.564-9.9,1.24-14.895,1.739-5.4.539-10.891.809-16.36.479-6.106-.368-11.409-1.782-16.58-3.562-4.948-1.703-9.858-3.442-15.016-4.942-4.997-1.453-10.207-2.488-15.625-3.322-11.434-1.758-23.19-2.854-34.302-5.236-5.749-1.233-11.421-2.571-17.198-3.767-5.858-1.213-11.745-2.384-17.607-3.591-5.234-1.078-10.308-2.092-15.831-2.603-5.308-.492-10.71-.626-16.082-.58-9.79.085-19.66.704-28.864,2.648-8.911,1.883-17.425,4.694-24.39,8.354-2.357,1.239-4.399,2.621-6.214,4.117-1.571,1.294-3.625,2.403-6.554,2.395-2.442-.007-4.922-.587-7.245-.949-3.733-.581-7.5-.845-11.361-.974-9.768-.327-19.565.226-29.269.805-4.789.286-9.575.584-14.373.815C3.756,31.772,1.878,31.844,0,31.908v.792c.894-.003,1.769-.007,2.59-.038,3.294-.124,6.581-.307,9.864-.496,6.276-.361,12.542-.777,18.832-1.056,6.234-.277,12.491-.384,18.736-.175,4.69.157,9.029.738,13.524,1.45,2.59.41,5.19.687,7.729.043,3.37-.854,5.146-3.117,7.446-4.612,6.467-4.204,15.505-7.252,24.539-9.389,9.337-2.208,19.249-2.902,29.311-3.087,5.681-.105,11.392.041,17.01.531,5.522.482,10.613,1.526,15.832,2.604,11.644,2.405,23.252,4.818,34.806,7.355,11.057,2.428,22.88,3.504,34.304,5.231,8.753,1.323,16.555,3.48,24.289,6.104,7.268,2.466,14.057,5.093,22.697,5.691,10.893.754,21.348-.967,31.888-2.289v-.713Z"/>
    <path class="cls-1" d="M81.249,25.005c-1.128.56-2.131,1.197-3.104,1.84-1.987,1.313-3.896,2.728-6.462,3.705-3.214,1.224-6.612.917-10.167.431-4.323-.591-8.643-1.161-13.065-1.465-4.907-.337-9.683-.098-14.578.157-5.406.282-10.816.534-16.237.709-5.359.173-10.707.598-16.049.908-.528.031-1.058.06-1.587.089v.887c6.132-.403,12.261-.876,18.409-1.074,10.535-.339,21.279-1.558,31.799-.706,4.597.372,9.1,1.06,13.61,1.665,2.816.378,5.796.045,8.247-.782,2.492-.84,4.325-2.186,6.115-3.438,1.036-.725,2.08-1.448,3.191-2.138,1.034-.642,2.216-1.466,3.514-1.931.119-.043.011-.149-.111-.107-1.225.416-2.43.707-3.525,1.251Z"/>
    <path class="cls-1" d="M83.738,30.465c-.904,1.058-1.406,2.216-2.373,3.254-1.672,1.794-4.275,2.832-7.887,2.891-3.246.053-6.506-.417-9.722-.613-5.108-.31-10.191.096-15.254.458-10.292.737-20.911.451-31.259.231C11.6,36.568,5.732,36.16,0,36.301v.847c6.245-.145,12.59.272,18.79.395,10.925.216,21.804.296,32.658-.474,4.925-.35,9.728-.467,14.656-.086,2.982.231,6.126.64,9.14.357,2.797-.263,4.841-1.155,6.428-2.447,1.206-.982,1.744-2.098,2.47-3.202.409-.623.91-1.219,1.435-1.812.51-.576,1.001-1.327,1.701-1.829.1-.072-.071-.174-.183-.102-1.316.85-2.456,1.463-3.357,2.518Z"/>
    <path class="cls-1" d="M79.331,36.55c-1.19.023-2.368.168-3.528.311-1.065.132-2.418.219-3.108.728-.155.114.005.31.244.337.937.103,1.865-.179,2.774-.311,1.245-.18,2.539-.277,3.747-.53.487-.102.45-.546-.129-.535h0Z"/>
    <path class="cls-1" d="M79.486,36.309c.036-.014.074-.027.102-.045.103-.069.111-.137.05-.218-.081-.108-.569-.17-.721-.139-.459.094-.897.211-1.336.331-.537.146-1.062.302-1.588.459-.407.122-.867.212-1.046.467-.107.153.115.337.378.375.679.097,1.715-.366,2.282-.542.41-.127.814-.261,1.225-.387.166-.051.326-.109.491-.162.079-.026.142-.062.189-.106.151-.145-.143.024-.313-.049-.049-.068-.098-.135-.147-.203.005-.005.009-.01.014-.015-.127.144.145.339.42.236h0Z"/>
    <path class="cls-1" d="M80.012,35.278c.19,2.38-8.52,1.582-10.892,1.417-.25-.017-.273.172-.115.238,2.168.895,5.427.784,7.995.541,2.157-.204,4.139-.928,3.217-2.211-.041-.057-.21-.056-.205.016h0Z"/>
    <path class="cls-1" d="M77.76,37.151c-1.58-.014-3.342-.144-4.838.212-.163.039-.163.202,0,.241,1.5.357,3.596.271,4.939-.244.16-.061.107-.207-.101-.209h0Z"/>
    <path class="cls-1" d="M0,36.493c1.392-.011,2.787.029,4.173.076,3.686.126,7.584.568,11.261.272.427-.034.42-.441,0-.479-3.679-.333-7.542-.399-11.261-.555C2.979,35.757,1.512,35.678,0,35.658v.835Z"/>
    <path class="cls-1" d="M17.727,36.713c-1.09-.198-2.259-.228-3.392-.305-1.114-.076-2.359-.214-3.441-.015-.374.069-.362.348,0,.419,1.066.21,2.318.161,3.441.205,1.134.045,2.291.1,3.392-.084.196-.033.19-.185,0-.219h0Z"/>
    <path class="cls-1" d="M311.626,40.142c.586-.065,1.18-.127,1.772-.19v-.816c-.468.053-.935.106-1.402.158-7.119.797-14.27,1.751-21.512,2.107-6.916.34-13.827-.119-20.197-1.718-5.923-1.487-10.63-4.103-16.947-5.125-.139-.023-.19.092-.059.12,6.681,1.381,11.696,4.521,18.266,6.08,5.984,1.419,12.521,1.704,18.937,1.429,7.119-.305,14.152-1.272,21.142-2.043Z"/>
    <path class="cls-1" d="M295.389,42.061c-.41-.16-.483-.31-1.028-.425-.907-.191-1.994-.2-2.946-.214-1.539-.022-3.996-.012-5.284.532-.291.123-.132.396.257.342,1.496-.208,3.094-.152,4.624-.167.032,0,.032-.027,0-.028-1.53-.015-3.128.042-4.624-.167-.029.123-.059.245-.089.367,1.556-.047,3.088-.286,4.664-.324.859-.02,1.716-.004,2.571.042.31.017,1.424.044,1.741.149.128.043.233-.064.115-.11h0Z"/>
    <path class="cls-1" d="M302.442,40.93c-2.709-.279-5.289-.072-7.967.229-3.252.365-6.618.578-9.834.999-.31.041-.324.324,0,.359,2.609.285,5.472-.167,8.017-.482,3.222-.399,6.452-.768,9.744-.935.161-.008.223-.151.041-.169h0Z"/>
    <path class="cls-1" d="M297.296,47.773c-2.725.191-5.11.514-7.735.994-3.044.557-5.999.582-9.122.222-2.937-.338-5.712-1.045-8.262-1.916-2.358-.806-3.994-1.978-6.186-2.859-.187-.075-.418.069-.306.172,1.454,1.336,3,2.262,5.33,3.147,2.56.972,5.497,1.657,8.48,2.09,2.608.379,5.333.435,7.98.174,3.423-.337,6.432-1.592,9.859-1.869.157-.013.12-.167-.037-.156h0Z"/>
    <path class="cls-1" d="M167.763,21.536c-1.446-.407-2.721-.841-4.281-1.119-1.919-.342-3.972-.485-5.952-.67-3.816-.356-7.539-.94-11.382-1.224-4.117-.304-8.238-.412-12.387-.307-1.896.048-3.752.184-5.629.336-1.889.154-3.854.133-5.673.475-.256.048-.264.249,0,.296,3.078.542,6.681-.127,9.815-.264,3.898-.171,7.825-.113,11.714.092,4.034.213,7.905.791,11.887,1.154,1.777.162,3.559.303,5.33.489,2.064.217,4.501.387,6.423.873.156.039.294-.087.136-.131h0Z"/>
    <path class="cls-1" d="M242.968,58.597c-1.779.132-3.607.01-5.414.152-2.264.179-4.448.486-6.649.828-4.018.624-8.052,1.26-12.029,1.962-3.842.678-7.641,1.427-11.578,1.916-3.35.417-7.624.212-10.547,1.325-.263.1-.092.305.208.277,3.328-.305,6.708-.401,10.028-.731,3.965-.395,7.789-1.162,11.609-1.857,8.032-1.461,16.19-2.706,24.402-3.747.123-.016.098-.135-.03-.125h0Z"/>
    <path class="cls-1" d="M218.533,61.731c-1.623-.259-3.222-.075-4.836.128-1.886.238-4.036.514-5.746,1.026-.348.104-.177.402.195.405,1.566.012,3.107-.336,4.599-.577,1.907-.309,3.911-.444,5.788-.798.155-.029.166-.156,0-.183h0Z"/>
    <path class="cls-1" d="M214.778,62.542c-4.905.552-9.688,1.472-14.636,1.903-2.953.257-5.9.535-8.854.788-1.476.126-2.954.247-4.429.38-1.595.143-3.168.497-4.764.56-.141.006-.144.123,0,.124,2.765.023,5.314.008,8.08-.204,3.207-.246,6.404-.532,9.602-.812,3.062-.267,5.959-.762,8.954-1.185,2.122-.3,4.689-.414,6.209-1.398.111-.072.004-.174-.161-.156h0Z"/>
    <path class="cls-1" d="M206.757,48.248c-.736.461-1.278.998-1.989,1.471-1.011.674-2.417,1.155-3.859,1.48-2.941.662-6.785.328-9.879.272-3.513-.064-7.022-.167-10.538-.181-2.155-.009-4.751-.328-6.488.546-.1.05-.02.144.106.144,6.891-.011,13.788.268,20.684.309,2.919.017,5.527-.012,8.128-.827,1.928-.604,4.036-1.87,4.029-3.169,0-.053-.126-.087-.194-.045h0Z"/>
    <path class="cls-1" d="M313.397,10.457v-.624c-5.461.21-10.921.446-16.399.58-5.883.144-11.78.123-17.643-.211-6.25-.355-12.408-.919-18.693-1.122-12.792-.414-25.617-.094-38.417-.022-6.411.036-12.8-.057-19.205-.192-6.286-.132-12.58.128-18.841.419-6.208.289-12.477.73-18.714.617-6.286-.113-12.492-.848-18.688-1.396-12.322-1.091-24.972-.66-37.409-.661-10.539,0-20.996.172-31.518.451-3.449.092-6.787,0-10.221-.173-5.847-.295-11.744-.227-17.599-.052-11.589.348-23.096,1.373-34.688,1.653C10.298,9.847,5.124,9.705,0,9.77v.708c5.357-.051,10.758.104,15.982-.02,11.622-.276,23.167-1.305,34.787-1.655,5.849-.176,11.72-.189,17.558.106,3.346.169,6.607.216,9.966.127,10.64-.283,21.215-.442,31.871-.443,12.856,0,25.727-.338,38.456.827,5.837.534,11.661,1.132,17.585,1.238,6.229.112,12.541-.378,18.741-.666,6.275-.292,12.56-.501,18.858-.369,6.406.134,12.796.206,19.208.17,12.808-.073,25.618-.365,38.417.049,6.023.195,11.939.727,17.925,1.096,5.852.361,11.77.332,17.643.194,5.47-.128,10.934-.404,16.399-.673Z"/>
    <path class="cls-1" d="M311.164,26.22c.744-.05,1.489-.103,2.234-.155v-.728c-4.813.333-9.646.607-14.436,1.008-11.805.987-23.239,2.506-35.273,1.962-6.267-.283-12.24-1.259-18.24-2.256-5.906-.982-11.782-2.02-17.664-3.047-11.721-2.046-23.48-4.041-35.475-5.524-12.104-1.497-24.507-2.433-36.785-3.36-12.135-.916-24.337-1.535-36.587-1.594-8.942-.043-16.955,1.488-24.876,3.712-7.635,2.144-14.996,4.698-23.381,5.827-6.339.853-12.175.38-18.44-.378-7.565-.916-15.318-1.307-23.046-1.377C19.453,20.222,9.662,20.677,0,21.539v.827c18.411-1.548,37.081-2.017,55.359.51,17.746,2.454,32.126-4.782,47.691-8.037,10.193-2.132,21.102-1.598,31.752-1.175,12.47.496,24.851,1.513,37.194,2.598,12.309,1.082,24.387,2.408,36.397,4.29,11.833,1.854,23.501,4.024,35.267,6.006,7.286,1.227,14.47,2.347,22.099,2.603,7.53.253,15.071-.271,22.483-.974,7.648-.726,15.215-1.45,22.922-1.967Z"/>
    <path class="cls-1" d="M30.864,14.978c6.339-.84,12.754-1.503,19.245-1.83,4.895-.247,9.833-.224,14.742-.345,4.922-.121,9.841-.281,14.759-.442,10.661-.35,21.321-.728,31.994-.952,10.168-.213,20.323-.344,30.397.591,4.276.397,8.523.858,12.834,1.121,4.729.289,9.487.339,14.239.299,11.154-.092,22.324.839,33.381,1.563,12.614.827,25.225,1.689,37.896,2.198,15.078.606,30.201.416,45.304.321,7.791-.049,15.581-.12,23.372-.175,1.456-.01,2.913-.028,4.37-.048v-.686c-.158,0-.316-.002-.475-.002-6.492-.003-12.985.058-19.477.095-12.912.075-25.848.258-38.759.107-25.346-.297-50.38-2.781-75.599-3.975-9.359-.443-18.689.017-28.031-.743-4.198-.342-8.349-.842-12.556-1.153-5.137-.379-10.28-.464-15.457-.443-20.502.081-40.94,1.185-61.419,1.624-6.442.138-12.801.251-19.189.798-7.562.648-14.998,1.71-22.379,2.822-3.603.543-7.153,1.117-10.837,1.467C6.171,17.48,3.085,17.637,0,17.754v.755c4.17-.161,8.326-.402,12.441-.87,6.199-.705,12.263-1.843,18.423-2.66Z"/>
    <path class="cls-1" d="M135.671,2.531c-2.154-.182-4.285-.294-6.464-.357-2.08-.06-4.509-.267-6.512.112-.323.061-.374.348,0,.396,2.068.261,4.392.102,6.512.148,2.19.048,4.292.067,6.464-.099.177-.014.175-.185,0-.199h0Z"/>
    <path class="cls-1" d="M137.513,2.66c-2.145-.314-4.446-.176-6.635-.096-2.409.088-5.033-.079-7.388.182-.357.04-.272.297,0,.359,2.027.457,4.533.23,6.665.146,2.433-.096,4.954-.122,7.358-.355.218-.021.198-.207,0-.236h0Z"/>
    <path class="cls-1" d="M136.146,2.525c-2.964.127-6.054.066-8.98.387-.278.031-.286.292,0,.319,2.968.282,6.043-.327,8.98-.496.236-.014.243-.221,0-.21h0Z"/>
    <path class="cls-1" d="M212.402,68.586c5.32-1.098,10.403-2.525,15.665-3.702,4.034-.902,8.105-1.485,12.35-1.965,3.902-.441,7.702-1.067,11.256-2.086,3.795-1.087,6.793-2.853,10.081-4.342,3.751-1.699,7.687-2.645,12.465-2.975,4.197-.29,8.464-.231,12.682-.177,4.438.057,8.852.011,13.286.006,4.405-.005,8.807-.069,13.21-.146v-.772c-6.583.1-13.165.212-19.748.188-10.244-.038-21.814-1.075-30.748,2.375-4.511,1.742-8.087,4.089-13.071,5.445-4.974,1.353-10.466,1.609-15.724,2.421-5.294.817-10.307,2.137-15.32,3.371-5.501,1.355-11.019,2.489-16.915,3.165-6.123.701-12.378,1-18.618,1.098-6.142.097-12.218-.189-18.347-.311-6.052-.12-12.111-.057-18.15-.344-5.919-.281-11.48-1.156-17.091-2.202-9.68-1.805-19.147-4.126-27.436-7.503-4.282-1.745-8.258-3.845-11.373-6.253-2.433-1.881-4.659-3.848-7.211-5.68-3.741-2.684-8.183-4.73-13.988-5.829-3.853-.73-7.987-.952-12.011-1.184-4.754-.275-9.531-.414-14.304-.529-4.574-.11-9.151-.183-13.726-.283-4.175-.092-8.017-.095-12.095.482C11.539,41.701,5.942,43.25,0,44.065v.843c7.776-1.036,14.996-3.345,23.062-3.76,2.638-.136,5.341.035,7.981.091,3.131.067,6.262.122,9.393.187,5.977.124,11.954.289,17.906.632,5.146.297,10.279.713,14.926,2.061,3.488,1.012,6.299,2.56,8.751,4.256,2.723,1.884,5.033,3.953,7.557,5.921,2.872,2.239,6.445,4.17,10.301,5.87,7.747,3.415,16.829,5.753,26.045,7.617,5.091,1.03,10.279,2.007,15.623,2.516,5.772.55,11.661.584,17.499.635,6.127.053,12.228.34,18.351.397,6.098.057,12.204-.111,18.255-.541,5.718-.407,11.338-1.089,16.752-2.206Z"/>
    <path class="cls-1" d="M219.144,70.482c6.266-1.057,12.532-2.115,18.798-3.172,4.053-.684,8.035-1.375,11.901-2.35,3.653-.921,7.164-2.012,10.719-3.043,3.764-1.091,7.601-2.09,11.636-2.823,3.925-.713,8.067-1.074,12.132-1.432,9.602-.846,19.326-1.252,29.066-1.382v-.595c-3.405.031-6.81.096-10.214.203-10.778.338-22.285.796-32.58,2.737-10.173,1.919-18.942,5.579-29.262,7.316-12.455,2.096-24.863,4.38-37.42,6.274-11.178,1.687-22.759,1.523-34.164.814-5.707-.355-11.387-.831-17.083-1.236-5.711-.406-11.449-.632-17.165-1.006-10.048-.658-20.176-1.772-29.158-4.495-4.596-1.394-8.673-3.247-12.184-5.412-3.886-2.396-8.05-4.646-12.283-6.848-3.176-1.652-6.401-3.275-9.59-4.92-2.75-1.418-5.309-2.803-8.801-3.628-6.588-1.556-13.929-1.484-20.935-1.26-3.469.111-6.931.282-10.403.359-3.99.088-7.992-.018-11.982-.04C13.352,44.505,6.473,44.638,0,45.79v.703c9.239-1.624,19.499-1.123,29.019-1.092,9.316.031,18.668-1.033,27.948-.16,4.992.47,9.034,1.674,12.718,3.595,4.196,2.188,8.476,4.324,12.663,6.518,7.777,4.075,14.311,8.896,23.809,11.775,8.471,2.568,18.087,3.634,27.543,4.32,5.603.406,11.243.61,16.854.983,5.739.382,11.457.859,17.194,1.249,11.028.75,22.113,1.012,33.057-.252,6.21-.717,12.275-1.925,18.34-2.948Z"/>
    <path class="cls-1" d="M199.918,76.321c5.694-.914,11.395-1.776,17.133-2.599,5.736-.823,11.421-1.731,16.896-3.007,5.168-1.205,10.113-2.684,15.311-3.863,6.766-1.535,13.7-2.92,20.812-3.856,7.266-.956,14.787-1.23,22.23-1.232,7.003-.002,14.072.271,21.097.77v-.676c-12.754-1.019-25.728-1.223-38.379-.14-10.375.888-20.492,2.968-30.11,5.267-5.356,1.28-10.46,2.864-15.945,3.97-5.601,1.129-11.412,1.9-17.172,2.721-11.242,1.602-22.361,4.025-34.091,4.133-6.08.056-11.961-.958-17.763-1.864-5.853-.914-11.679-1.876-17.638-2.554-6.02-.686-12.112-1.149-18.128-1.86-5.973-.706-11.892-1.56-17.7-2.618-10.296-1.874-17.991-5.784-26.182-9.577-5.395-2.498-10.809-4.531-17.616-5.581-6.731-1.038-13.803-1.23-20.724-1.564-7.765-.374-15.391-1.274-23.139-1.735C12.548,50.083,6.274,49.929,0,50.04v.713c9.882-.111,19.81.405,29.535,1.303,4.943.456,9.844.806,14.839,1.037,5.223.241,10.449.484,15.584,1.097,5.061.604,9.894,1.67,14.082,3.395,4.247,1.749,8.199,3.697,12.255,5.58,3.758,1.745,7.67,3.384,11.978,4.679,4.834,1.454,10.21,2.287,15.476,3.086,11.875,1.803,24.136,2.497,36.021,4.235,5.903.863,11.732,1.877,17.662,2.684,5.458.743,10.801.868,16.376.486,5.469-.374,10.824-1.165,16.11-2.014Z"/>
    <path class="cls-1" d="M204.59,78.427c5.974-.956,12.022-1.781,18.031-2.666,12.236-1.801,24.485-3.582,36.832-5.131,6.011-.754,11.995-1.425,18.124-1.795,5.929-.357,11.895-.497,17.855-.556,5.988-.059,11.977-.016,17.965.029v-.597c-6.235-.094-12.472-.16-18.713-.11-6.207.05-12.41.238-18.581.623-5.986.374-11.847,1.077-17.72,1.81-12.353,1.541-24.603,3.33-36.845,5.124-5.984.877-12.001,1.702-17.951,2.65-5.662.902-11.311,1.829-17.083,2.489-5.914.676-11.878.947-17.882.544-6.141-.412-12.11-1.49-17.982-2.535-5.868-1.044-11.759-2.101-17.758-2.885-6.033-.788-12.187-1.252-18.281-1.86-2.914-.291-5.811-.626-8.682-1.029-3.054-.428-6.013-1.323-8.815-2.116-5.146-1.454-10.049-3.166-15.029-4.789-4.806-1.566-9.677-3.167-15.106-3.932-5.253-.74-10.776-.675-16.13-.418-5.603.269-11.154.808-16.756,1.086-4.228.209-8.384-.015-12.6-.213-4.464-.209-8.946-.397-13.427-.272C5.362,61.957,2.518,62.158,0,62.756v.83c2.955-.771,6.411-.916,9.616-.966,4.479-.07,8.965.173,13.424.385,4.407.209,8.615.283,13.027.032,5.606-.318,11.166-.849,16.79-1.072,5.735-.228,11.497-.043,16.967,1.012,5.544,1.069,10.713,3.03,15.741,4.691,4.968,1.642,9.957,3.263,15.231,4.58,5.422,1.354,11.277,1.857,17.096,2.405,6.116.577,12.245,1.111,18.245,2.011,5.93.89,11.76,1.972,17.625,2.989,5.553.963,11.185,1.778,16.987,2.073,5.629.287,11.302-.148,16.811-.779,5.754-.658,11.387-1.617,17.03-2.52Z"/>
    <path class="cls-1" d="M240.98,79.855c12.678-1.129,25.35-2.518,38.159-3.08,11.387-.5,22.827-.503,34.259-.475v-.581c-6.25-.068-12.501-.112-18.758-.058-12.278.106-24.287.809-36.404,1.886-25.536,2.271-51.148,4.786-76.983,5.698-6.347.224-12.799.308-19.13-.086-6.041-.377-11.93-1.346-17.786-2.22-5.846-.872-11.744-1.402-17.657-2.086-5.851-.676-11.575-1.664-17.209-2.769-5.738-1.126-11.311-2.534-17.196-3.406-5.54-.821-11.284-1.159-17.001-1.215-6.089-.06-12.109.358-18.163.65-6.231.301-12.481.466-18.735.467-9.306,0-18.329-.646-27.509-1.411C7.241,70.865,3.619,70.725,0,70.726v.72c1.384.003,2.771.025,4.16.073,6.207.215,12.292,1,18.468,1.377,12.438.761,25.024.494,37.456-.161,12.224-.645,24.161-.79,35.986,1.38,5.763,1.058,11.337,2.431,17.106,3.493,5.703,1.049,11.522,1.887,17.44,2.449,11.53,1.096,22.647,3.559,34.358,4.028,12.757.511,25.646-.453,38.302-1.249,12.615-.793,25.169-1.865,37.703-2.981Z"/>
  </g>
  <g>
    <path class="cls-1" d="M32.464,105.017C21.645,105.23,10.825,105.445,0,105.513v.706c24.934-.134,49.832-.978,74.774-.987,25.957-.009,51.915-.012,77.873-.037,11.617-.011,23.229-.018,34.839-.161.321-.004.321-.275,0-.279-25.835-.317-51.706-.174-77.551-.184-25.838-.01-51.644-.061-77.47.445Z"/>
    <path class="cls-1" d="M58.379,110.074c25.585,1.631,51.365,2.021,77.095,1.81,25.742-.211,51.457-1.019,77.161-1.795,11.775-.356,23.384-.421,35.145.139,4.722.225,9.173.543,13.894.244,3.896-.247,7.883-.717,11.812-.494,13.254.751,26.594.757,39.911.654v-.455c-9.422,0-18.844.044-28.263-.183-5.241-.126-10.611-.692-15.844-.456-4.057.183-8.08.636-12.154.692-2.398.033-4.851-.231-7.234-.361-2.982-.162-5.968-.294-8.955-.422-5.647-.243-11.317-.297-16.977-.222-12.817.169-25.643.729-38.449,1.083-25.63.71-51.29,1.228-76.953.931-12.872-.149-25.737-.515-38.564-1.147-12.912-.636-25.72-1.939-38.708-1.939-8.258,0-16.498.405-24.7.909C4.393,109.195,2.196,109.352,0,109.518v.575c.14-.009.28-.016.421-.025,6.425-.398,12.845-.793,19.297-1.031,6.425-.236,12.865-.31,19.297-.135,6.491.177,12.914.76,19.365,1.171Z"/>
    <path class="cls-1" d="M11.789,141.586c2.016.063,4.179.412,6.112.721,2.509.402,5.23.933,7.301,1.852,2.272,1.008.275,1.967-1.707,2.406-2.534.561-5.397.655-8.09.671-2.3.014-4.688-.067-6.904-.434-3.947-.654-4.323-3.104-1.202-4.424,1.634-.691,4.279-.489,6.221-.47,1.115.011,2.388.131,3.484.245.969.101.682-.062.231-.116-1.8-.215-3.596-.443-5.401-.646-.22-.025-.314.164-.093.189,1.913.215,3.991.57,5.937.621.111.003.127-.089.026-.106-3.602-.621-7.976-1.562-11.361-.107-2.121.912-2.912,2.494-1.759,3.849,1.044,1.228,3.766,1.63,5.948,1.795,3.107.235,6.265.203,9.368-.036,2.868-.221,10.34-1.513,6.268-3.745-1.877-1.029-4.735-1.54-7.18-1.957-2.27-.386-4.873-.823-7.247-.504-.2.027-.144.187.046.193Z"/>
    <path class="cls-1" d="M0,141.246c.377-.151.745-.31,1.018-.396,2.453-.767,5.444-1.006,8.204-1.023,5.352-.032,10.897.619,15.995,1.489,3.008.514,6.043,1.182,8.918,1.904,2.28.573,5.759,1.429,6.431,2.93.464,1.036-1.695,1.839-3.121,2.107-1.925.361-4.16.187-6.139.099-4.593-.204-9.09.006-13.624.398C11.672,149.274,4.658,149.237,0,147.018v.542c4.194,2.1,10.635,2.254,16.409,1.886,5.189-.331,10.136-.675,15.384-.425,3.481.165,7.897.236,9.681-1.821,2.52-2.906-7.35-4.794-10.615-5.477-4.999-1.045-9.935-1.918-15.25-2.304C10.251,139.029,4.85,138.903,0,140.445v.801Z"/>
    <path class="cls-1" d="M0,136.381v.816c1.878-.311,3.844-.47,5.689-.528,4.66-.147,9.374.323,13.928.818,5.461.594,10.935,1.16,16.31,1.972,5.085.768,10.195,1.786,14.665,3.374,3.212,1.141,6.903,2.753,8.087,4.871,1.582,2.829-4.891,4.09-8.649,4.316-4.412.265-8.916-.168-13.285-.481-3.873-.277-7.696-.338-11.595-.167-4.959.217-9.864.689-14.847.733C6.442,152.139,2.972,151.619,0,150.636v.799c3.594,1.143,7.659,1.374,11.794,1.305,6.215-.106,12.334-.838,18.564-.825,4.442.01,8.837.521,13.251.741,5.587.278,17.898-.077,16.323-4.918-.601-1.847-3.695-3.405-6.201-4.487-3.448-1.488-7.32-2.518-11.382-3.369-6.753-1.416-13.892-2.106-20.922-2.933-5.368-.632-10.779-1.197-16.286-1.04-1.733.049-3.473.202-5.141.472Z"/>
    <g>
      <path class="cls-1" d="M0,147.649c.56.194,1.146.336,1.744.408.11.013.192-.059.111-.107C1.258,147.602.618,147.26,0,146.907v.742Z"/>
      <path class="cls-1" d="M0,140.84c1.204-.423,2.571-.708,3.77-.832.142-.015.093-.126-.032-.132-1.231-.065-2.541.098-3.738.424v.54Z"/>
    </g>
    <g>
      <path class="cls-1" d="M0,147.353c.521.173,1.05.346,1.556.553.041.017.085-.019.052-.038C1.078,147.561.523,147.25,0,146.926v.427Z"/>
      <path class="cls-1" d="M0,140.753c.459-.237.982-.392,1.578-.404.17-.003.17-.146,0-.148-.631-.009-1.13.005-1.578.077v.476Z"/>
    </g>
    <g>
      <path class="cls-1" d="M0,147.132c.557.338,1.154.646,1.81.931.9.392,1.622.467,2.682.735.071.018.131-.036.062-.06C2.86,148.15,1.115,147.211,0,146.146v.986Z"/>
      <path class="cls-1" d="M0,141.513c.69-.569,1.743-.942,2.668-1.398.103-.051.02-.148-.108-.147-1.038.003-1.881.208-2.56.537v1.008Z"/>
    </g>
    <path class="cls-1" d="M0,140.408v.453c.697-.328,1.476-.595,2.199-.743.143-.029.086-.155-.064-.13C1.345,140.126.642,140.249,0,140.408Z"/>
    <g>
      <path class="cls-1" d="M0,147.188c.23.166.472.328.734.478,1.437.827,3.476,1.29,5.426,1.582,2.776.415,5.193.055,7.985-.026.032,0,.032-.027,0-.028-2.135-.062-4.522-.22-6.638-.429-1.718-.169-3.34-.554-4.791-1.092C1.464,147.21.555,146.582,0,145.88v1.309Z"/>
      <path class="cls-1" d="M0,141.244v1.296c.181-.231.397-.458.658-.676,2.256-1.876,7.193-2.02,10.802-1.975,3.787.047,7.79.327,11.492.777.138.017.196-.098.058-.12C16.396,139.512,5.272,137.764,0,141.244Z"/>
    </g>
    <g>
      <path class="cls-1" d="M0,150.121v.953c.271.093.541.182.811.267,6.811,2.155,14.775,1.582,22.019.496.184-.028.146-.187-.045-.186-6.904.028-13.436,1.094-19.988-.647C1.848,150.752.909,150.455,0,150.121Z"/>
      <path class="cls-1" d="M0,136.67v.823c.519-.13,1.044-.245,1.566-.345,6.416-1.232,14.058-.496,20.411.527.109.018.146-.071.046-.093-1.707-.385-3.239-.79-5.044-1.055-1.805-.266-3.66-.432-5.511-.556-3.815-.255-7.756-.038-11.379.681-.03.006-.059.013-.089.019Z"/>
    </g>
    <path class="cls-1" d="M0,134.232c1.066-.086,2.137-.138,3.212-.162.093.055.223.094.395.098,12.28.322,24.537,1.682,36.035,4.11,8.529,1.801,17.621,3.653,24.651,7.021,2.552,1.223,5.388,2.88,5.628,4.864.33,2.735-5.551,4.214-9.5,4.505-2.316.171-4.688.087-7.01.013-3.119-.1-6.238-.112-9.36-.055-5.9.108-11.609.738-17.451,1.116-4.934.319-9.919.339-14.813-.177C7.58,155.123,3.772,154.189,0,153.129v.893c4.799,1.261,9.781,2.254,15.129,2.585,4.947.306,9.95.037,14.855-.356,6.21-.498,12.269-.926,18.56-.914,4.973.009,10.05.496,14.924-.266,3.304-.516,6.616-1.942,7.565-3.854,1.741-3.507-5.856-6.652-10.214-8.285-3.213-1.204-6.667-2.05-10.201-2.909-5.584-1.357-11.215-2.658-17.008-3.709-7.408-1.344-15.368-2.151-23.242-2.551-.836-.074-1.673-.144-2.513-.205-2.686-.197-5.28-.207-7.854-.019v.694Z"/>
    <g>
      <path class="cls-1" d="M0,153.576c.501.141,1.001.283,1.499.425.032.009.057-.015.028-.027C1.012,153.783.505,153.588,0,153.393v.183Z"/>
      <path class="cls-1" d="M0,133.884v.686c.933-.111,1.877-.196,2.823-.259,1.339-.089,2.857-.306,4.188-.256.155.006.151-.126,0-.134-1.469-.079-2.688-.283-4.188-.24-.944.027-1.889.105-2.823.203Z"/>
    </g>
    <path class="cls-1" d="M0,131.817c4.516.031,9.059.501,13.484,1.07,1.637.211,3.274.415,4.912.619,4.803.891,9.828,1.278,14.773,1.895,5.999.748,11.816,2.006,17.61,3.138,8.516,1.664,17.289,3.041,25.517,5.138,6.506,1.658,14.475,4.161,16.024,8.443,1.705,4.712-6.408,7.045-13.247,7.873-8.85,1.071-18.105.348-27.048.223-6.285-.088-12.573-.061-18.85.151-6.077.205-12.108.342-18.19.092C10.001,160.252,4.956,159.761,0,159.066v.737c2.821.375,5.65.686,8.438.939,12.024,1.09,24.028.176,36.106.147,6.228-.015,12.454.125,18.675.279,3.805.094,7.546.155,11.342-.056,6.234-.346,13.606-1.28,17.417-4.343,3.473-2.791,1.603-6.414-2.034-8.798-4.45-2.915-11.256-4.614-17.469-6.004-7.914-1.771-16.128-3.133-24.167-4.711-5.326-1.045-10.648-2.105-16.174-2.766-.518-.062-1.039-.121-1.56-.179-.167-.024-.333-.048-.501-.071-3.198-.43-6.42-.806-9.629-1.209-.783-.098-1.564-.2-2.345-.302-.416-.077-.832-.155-1.244-.24-.182-.037-.337-.025-.456.016-4.464-.589-8.921-1.169-13.51-1.396-.971-.048-1.934-.071-2.89-.071v.779Z"/>
    <path class="cls-1" d="M0,126.954c5.84-.061,11.675.338,17.392.985,11.781,1.334,23.055,3.859,33.995,6.598,5.269,1.319,10.443,2.606,15.993,3.52,5.642.929,11.429,1.557,17.196,2.186,9.53,1.038,19.342,1.942,28.101,4.405,6.034,1.697,14.059,4.813,12.102,9.209-2.163,4.862-12.42,6.859-20.031,7.919-8.428,1.173-17.097,1.625-25.457,2.971-11.015,1.774-21.666,4.223-33.235,4.592-9.482.303-19.386-.465-28.718-1.335C11.496,167.459,5.699,166.746,0,165.84v.765c1.788.278,3.584.539,5.385.784,9.255,1.258,18.72,2.04,28.209,2.454,4.847.212,9.722.365,14.575.143,5.454-.249,10.801-.973,16.038-1.836,5.39-.888,10.689-1.94,16.09-2.809,4.02-.647,8.105-1.084,12.222-1.486,8.327-.814,17.106-1.506,24.568-3.881,5.828-1.855,11.188-5.636,8.644-9.56-2.347-3.62-9.714-5.824-15.613-7.249-9.263-2.238-19.539-3.002-29.359-4.103-5.768-.647-11.501-1.392-17.083-2.444-5.751-1.085-11.182-2.654-16.752-3.993-10.721-2.575-21.802-4.783-33.342-5.843C9.277,126.387,4.641,126.115,0,126.12v.834Z"/>
    <path class="cls-1" d="M5.061,106.183C3.368,106.253,1.683,106.311,0,106.354v.729c1.681-.049,3.367-.111,5.061-.186,3.812-.167,7.615-.39,11.41-.647,3.809-.258,7.485-.782,11.249-1.108.122-.011.069-.112-.05-.103-3.676.289-7.486.329-11.198.559-3.797.234-7.602.428-11.41.585Z"/>
    <path class="cls-1" d="M0,106.35c1.943-.008,3.877-.072,5.739-.301.135-.017.135-.136,0-.153C3.877,105.667,1.943,105.603,0,105.595v.755Z"/>
    <path class="cls-1" d="M0,105.796v.57c.034,0,.071-.001.105-.001,1.749-.009,3.966-.052,5.277-.793.074-.041,0-.114-.101-.098C3.541,105.75,1.791,105.81,0,105.796Z"/>
    <path class="cls-1" d="M0,106.109c.591-.016,1.183-.032,1.774-.052.194-.006.194-.162,0-.169-.591-.019-1.183-.036-1.774-.052v.272Z"/>
    <path class="cls-1" d="M0,123.06c1.039.047,2.077.099,3.111.151,4.712.236,9.263.323,13.979.27.186-.002.186-.158,0-.162C11.408,123.217,5.679,122.649,0,122.33v.73Z"/>
    <path class="cls-1" d="M169.217,150.29c6.048-.314,12.12-.741,18.184-.936,5.802-.186,11.449.483,17.222-.074,2.728-.263,5.401-.7,8.069-1.105,2.933-.445,5.9-.76,8.859-1.139,5.488-.704,10.745-1.876,15.904-3.12,5.442-1.312,10.809-2.986,16.651-3.649,12.569-1.426,25.307,1.841,37.469,3.128,5.454.577,10.924,1.15,16.389,1.697,1.816.182,3.626.335,5.433.435v-.76c-1.937-.134-3.853-.314-5.696-.499-5.041-.506-10.047-1.091-15.096-1.573-10.976-1.048-21.488-3.536-32.755-3.529-5.525.004-10.428.933-15.427,2.162-5.462,1.343-10.872,2.751-16.513,3.846-5.524,1.072-11.303,1.582-16.934,2.438-2.829.43-5.668.843-8.578,1.062-3.101.232-6.08-.013-9.171-.123-6.061-.215-12.128.334-18.139.685-2.649.155-5.328.179-7.962.403-2.708.23-5.317.774-7.858,1.328-5.03,1.096-9.965,2.328-15.474,2.283-4.944-.04-8.869-2.02-12.016-3.948-6.235-3.819-11.696-8.218-20.519-10.278-5.531-1.291-11.586-2.018-17.345-2.922-6.17-.969-12.342-1.933-18.472-2.978-12.748-2.172-25.088-5.005-37.774-7.281-6.237-1.119-12.586-2.064-19.025-2.737-2.885-.301-5.794-.523-8.714-.684-3.186-.176-6.178,0-9.333.031-.146.001-.147.128,0,.127,2.623-.013,5.266.271,7.901.39,3.302.148,6.582.426,9.837.766,5.962.622,11.814,1.543,17.59,2.573,11.683,2.084,23.04,4.697,34.711,6.8,12.158,2.191,24.53,4.037,36.814,5.99,9.89,1.572,16.142,6.148,22.598,10.303,2.766,1.781,5.875,3.43,9.893,4.248,4.416.898,9.532.199,13.795-.629,5.134-.998,9.991-2.447,15.482-2.732Z"/>
    <path class="cls-1" d="M204.191,143.025c6.591-.189,11.717-1.967,17.511-3.531,6.461-1.743,13.218-3.128,20.243-3.947,6.907-.805,13.676-1.89,20.567-2.727,7.569-.92,15.011-.724,22.647-.237,7.142.455,14.305.78,21.454,1.196,2.256.131,4.522.254,6.785.391v-.553c-10.83-.921-21.758-1.497-32.666-2.1-7.189-.398-14.066-.104-21.087.82-3.287.432-6.535.955-9.806,1.422-3.554.507-7.17.824-10.739,1.29-6.558.857-12.846,2.294-18.901,3.926-3.156.851-6.168,1.918-9.488,2.556-3.305.635-6.857.709-10.316.696-3.258-.012-6.506-.142-9.764-.072-3.676.078-7.335.428-10.941.815-6.727.721-13.367,1.672-20.136,2.271-6.753.598-13.679.731-20.338-.25-6.828-1.005-12.71-3.588-18.69-5.595-5.722-1.921-11.644-3.651-18.005-4.799-6.665-1.204-13.559-2.006-20.36-2.92-6.811-.915-13.587-1.928-20.097-3.392-6.905-1.552-13.824-3.06-20.817-4.484-6.774-1.38-13.511-2.926-20.382-4.142-5.994-1.06-12.348-1.462-18.605-1.599-.751-.016-1.505-.029-2.26-.038v.875c8.711.102,17.295.874,25.636,2.619,7.019,1.468,14.087,2.861,21.113,4.318,6.825,1.415,13.494,3.096,20.385,4.401,13.419,2.542,27.906,3.29,40.956,6.441,6.362,1.536,12.255,3.636,18.137,5.669,5.497,1.9,10.804,3.529,17.309,3.998,13.271.959,26.306-1.561,39.229-2.835,7.192-.709,14.207-.274,21.426-.482Z"/>
    <path class="cls-1" d="M160.044,151.335c-2.725.191-5.11.514-7.735.994-3.044.557-5.999.582-9.122.222-2.937-.338-5.713-1.045-8.261-1.916-2.358-.806-3.995-1.978-6.186-2.859-.187-.075-.418.069-.306.172,1.455,1.336,3,2.262,5.33,3.147,2.56.972,5.497,1.657,8.48,2.09,2.608.379,5.332.435,7.98.174,3.423-.338,6.431-1.592,9.859-1.869.157-.013.12-.167-.037-.156h0Z"/>
    <path class="cls-1" d="M0,122.523c2.249.005,4.499.072,6.736.19,4.034.213,7.905.791,11.887,1.154,1.777.162,3.559.303,5.33.489,2.064.217,4.501.387,6.423.873.156.04.294-.087.137-.131-1.446-.408-2.721-.841-4.281-1.119-1.919-.342-3.972-.485-5.952-.67-3.816-.356-7.54-.94-11.383-1.224C5.936,121.868,2.973,121.752,0,121.742v.781Z"/>
    <path class="cls-1" d="M105.716,162.16c-1.779.132-3.608.01-5.414.152-2.263.179-4.448.486-6.649.828-4.018.624-8.052,1.26-12.029,1.962-3.842.678-7.641,1.426-11.578,1.916-3.35.417-7.624.212-10.546,1.325-.263.1-.092.305.208.277,3.328-.305,6.708-.401,10.028-.731,3.965-.395,7.789-1.163,11.609-1.857,8.032-1.461,16.19-2.706,24.402-3.747.123-.016.098-.135-.03-.125h0Z"/>
    <path class="cls-1" d="M81.281,165.294c-1.622-.259-3.222-.075-4.835.128-1.886.238-4.036.514-5.746,1.026-.348.104-.178.402.195.405,1.567.012,3.108-.336,4.598-.577,1.908-.309,3.911-.444,5.788-.798.155-.029.166-.156,0-.183h0Z"/>
    <path class="cls-1" d="M77.527,166.105c-4.905.552-9.688,1.472-14.636,1.903-2.953.257-5.9.535-8.855.788-1.476.126-2.954.248-4.428.38-1.595.143-3.169.497-4.765.561-.14.006-.143.123,0,.124,2.765.023,5.314.007,8.08-.204,3.207-.245,6.404-.532,9.602-.812,3.062-.267,5.959-.762,8.954-1.185,2.122-.3,4.689-.413,6.209-1.398.11-.072.004-.174-.161-.156h0Z"/>
    <path class="cls-1" d="M69.505,151.811c-.736.461-1.278.998-1.989,1.471-1.011.674-2.417,1.155-3.859,1.48-2.941.663-6.785.328-9.88.272-3.513-.063-7.022-.167-10.538-.18-2.155-.009-4.751-.328-6.488.545-.1.05-.02.144.107.144,6.891-.011,13.788.268,20.683.308,2.919.017,5.527-.012,8.128-.827,1.929-.604,4.036-1.87,4.029-3.169,0-.053-.125-.087-.194-.045h0Z"/>
    <path class="cls-1" d="M313.397,114.554v-.586c-.752-.061-1.502-.12-2.249-.17-6.872-.458-13.764-.811-20.684-.912-12.761-.185-25.352,1.149-38.059,1.564-14.574.477-29.327.134-43.921.087-13.113-.042-26.227-.11-39.338-.257-8.843-.099-17.711-.186-26.535-.552-4.067-.169-8.085-.564-12.143-.79-7.825-.438-15.704-.513-23.562-.496-7.856.017-15.708.152-23.563.183-7.802.031-15.599-.291-23.396-.214-7.605.075-15.179.57-22.759.883-7.871.325-15.318-.082-23.088-.809C9.357,112.042,4.707,111.721,0,111.549v.663c1.386.044,2.769.104,4.147.187,7.444.448,14.746,1.434,22.221,1.753,7.521.321,15.177-.319,22.669-.657,7.706-.349,15.281-.318,22.997-.186,7.851.135,15.711.039,23.563-.04,14.615-.149,28.976-.016,43.491,1.013,7.33.519,14.83.525,22.203.636,26.806.403,53.637.401,80.451.41,13.228.004,26.179-1.189,39.344-1.645,10.786-.373,21.579.224,32.312.871Z"/>
    <path class="cls-1" d="M190.434,128.011c6.614-.858,12.963-1.672,19.762-1.977,6.488-.292,13.005-.326,19.508-.431,6.554-.106,12.831-.63,19.291-1.214,7.302-.661,14.131-.455,21.339.436,6.252.773,12.389,1.775,18.786,2.113,8.091.427,16.234-.137,24.278-.981v-.743c-9.963.955-19.975,1.57-30.075.518-6.853-.713-13.494-1.93-20.428-2.417-7.208-.506-14.264.356-21.349.99-7.243.648-14.641.549-21.953.681-6.832.124-13.668.366-20.403,1.048-3.386.343-6.674.912-10.023,1.347-3.891.505-7.84.861-11.787,1.194-7.638.643-15.253,1.247-22.847,2.043-7.321.767-14.7,1.369-22.16,1.39-7.631.022-14.863-.868-22.147-2.061-14.521-2.379-28.849-5.118-43.469-7.309-14.702-2.203-29.73-3.474-44.779-4.67C14.743,117.393,7.382,116.835,0,116.47v.857c13.252.603,26.411,1.756,39.537,2.924,15.061,1.34,29.669,3.459,44.246,5.957,7.239,1.24,14.45,2.531,21.696,3.758,6.925,1.173,13.783,2.31,21.014,2.681,14.524.745,28.78-1.526,43.035-2.669,7-.561,14.01-1.072,20.907-1.966Z"/>
    <path class="cls-1" d="M297.663,120.858c5.214-.472,10.465-.933,15.734-1.288v-.568c-1.818.082-3.637.179-5.46.304-5.353.366-10.666.875-15.998,1.32-7.846.655-15.713.448-23.619.363-10.214-.11-20.426-.261-30.641-.342-11.611-.092-23.223.111-34.834.155-22.434.087-44.862-.088-67.292-.32-8.666-.09-17.342-.052-26-.292-15.807-.439-31.523-1.587-47.235-2.609-7.704-.501-15.432-1.037-23.175-1.305-5.304-.184-10.618.009-15.926-.13-6.116-.16-12.079-.761-18.102-1.331C3.411,114.653,1.706,114.523,0,114.415v.776c1.372.088,2.742.189,4.107.311,5.481.493,10.896,1.09,16.44,1.328,5.487.236,10.959.074,16.448.165,7.51.125,15.034.703,22.493,1.179,7.875.502,15.743,1.043,23.621,1.53,13.937.861,27.848,1.406,41.87,1.466,7.191.031,14.382.132,21.572.204,25.522.255,51.047.308,76.57.066,18.818-.178,37.628.348,56.445.401,6.136.017,12.044-.435,18.097-.984Z"/>
    <path class="cls-1" d="M102.293,166.583c5.822-.63,11.605-1.602,16.281-3.726,5.22-2.371,9.681-4.937,16.546-5.627,6.616-.666,13.527-.311,20.204-.247,6.875.065,13.743-.325,20.609-.479,7.164-.16,14.335.171,21.478.01,6.428-.145,12.6-1.32,18.719-2.327,14.147-2.327,29.844-2.315,44.354-1.218,14.078,1.064,27.956,3.022,42.253,2.835,3.614-.047,7.147-.395,10.66-.82v-.759c-3.516.403-7.048.744-10.66.816-7.425.149-14.876-.403-22.192-1.049-6.914-.611-13.787-1.373-20.73-1.881-7.235-.53-14.396-.682-21.684-.53-6.979.146-13.953.548-20.72,1.55-6.662.987-13.058,2.327-20.001,2.563-3.376.114-6.786-.084-10.164-.112-3.772-.031-7.545.022-11.314.1-6.871.143-13.729.527-20.609.477-6.36-.046-12.804-.338-19.132.154-6.086.472-10.478,2.062-15.084,4.261-2.554,1.219-4.995,2.412-8,3.276-3.03.871-6.368,1.358-9.676,1.761-3.203.39-6.346.728-9.466,1.308-3.158.588-6.219,1.337-9.265,2.085-6.614,1.624-13.1,3.149-20.203,3.961-7.338.838-14.864,1.104-22.339,1.111-7.256.007-14.499-.355-21.757-.42C13.531,173.595,6.679,173.438,0,172.506v.867c6.639.96,13.588,1.052,20.402,1.116,14.382.136,28.513.853,42.799-.544,13.745-1.344,25.451-5.884,39.091-7.361Z"/>
    <g>
      <path class="cls-1" d="M12.088,175.133c-1.248-.082-2.495-.162-3.745-.233C5.557,174.74,2.776,174.593,0,174.427v.706s12.088,0,12.088,0Z"/>
      <path class="cls-1" d="M109.588,169.259c5.684-1.25,10.963-3.009,16.429-4.519,6.431-1.776,12.982-2.74,20.021-3.407,14.861-1.407,30.027-1.603,45.061-1.358,15.111.246,30.205-.358,45.267-.967,7.43-.3,14.861-.581,22.284-.932,7.539-.356,15.109-.642,22.631-.037,7.238.583,14.231,1.864,21.451,2.485,3.591.309,7.153.224,10.664-.107v-.543c-3.384.275-6.812.334-10.375.062-7.223-.551-14.223-1.885-21.431-2.525-7.024-.624-14.132-.407-21.191-.115-7.408.307-14.813.622-22.223.914-15.07.595-30.155,1.209-45.273,1.029-14.64-.174-29.188-.11-43.719,1.041-6.727.533-13.44,1.21-19.715,2.718-5.794,1.392-11.226,3.197-16.93,4.696-6.659,1.751-13.937,2.721-20.959,3.904l-20.975,3.534h5.26c4.194-.716,8.37-1.476,12.552-2.181,7.045-1.188,14.317-2.186,21.17-3.693Z"/>
    </g>
    <path class="cls-1" d="M120.435,168.621c12.868-2.513,26.036-3.658,39.659-3.436,13.718.224,27.345,1.739,40.499,3.876,6.147.999,11.977,2.091,18.366,2.518,6.543.437,12.668.455,19.087-.45,6.063-.855,11.871-2.206,17.903-3.129,7.13-1.091,14.306-2.089,21.597-2.781,7.174-.681,14.372-.912,21.637-.761,4.717.098,9.493.133,14.215.38v-.496c-4.197-.276-8.421-.398-12.657-.508-7.034-.181-13.922-.067-20.903.477-7.32.571-14.528,1.546-21.668,2.601-6.424.949-12.625,2.26-19.004,3.287-6.831,1.1-13.22,1.062-20.207.604-7.049-.463-13.526-1.837-20.316-2.908-13.083-2.062-26.607-3.335-40.205-3.507-13.181-.167-25.924,1.094-38.368,3.487-6.126,1.178-12.135,2.561-17.995,4.106-4.615,1.218-9.197,2.268-13.949,3.152h4.398c3.007-.618,5.964-1.315,8.878-2.115,6.163-1.694,12.555-3.132,19.033-4.397Z"/>
    <path class="cls-1" d="M174.056,171.917c12.767.133,25.341.534,38.042,1.288,12.672.752,25.236,1.205,37.97.682,5.855-.241,11.685-.661,17.49-1.147,6.073-.508,12.014-1.395,18.071-1.949,6.669-.61,12.801-.398,19.255.703,2.523.43,5.032.903,7.676,1.012.279.011.559.019.839.024v-.47c-3.399-.114-6.545-.8-9.768-1.393-6.301-1.159-12.659-1.028-19.135-.444-6.967.628-13.799,1.588-20.798,2.135-7.407.578-14.857.959-22.333,1.072-14.839.225-29.516-1.094-44.263-1.779-7.372-.342-14.764-.374-22.156-.46-7.406-.086-14.813-.133-22.217.007-7.162.135-14.307.496-21.376,1.16-7.266.683-14.484,1.742-21.641,2.715-.145.02-.29.04-.436.059h5.825c4.663-.615,9.336-1.206,14.028-1.752,14.724-1.717,29.964-1.621,44.928-1.464Z"/>
  </g>
  <path class="cls-1" d="M285.214,84.262c9.379-.388,18.778-.734,28.183-.968v-.639c-18.834.382-37.624,1.252-56.426,2.071-25.52,1.111-51.007,1.737-76.609,1.625-6.416-.028-12.836-.197-19.196-.694-6.05-.473-12.288-.129-18.362-.007-12.785.257-25.403-1.381-37.883-2.763-11.988-1.327-23.978-2.679-36.141-3.397-12.63-.746-25.455-.741-38.143-.781-7.294-.023-14.603-.086-21.896-.012-2.842.029-5.831.092-8.742.348v.784c1.914-.159,3.849-.238,5.726-.297,5.02-.157,10.068-.06,15.093-.059,12.775.002,25.538.088,38.302.389,12.585.297,25.029,1.541,37.37,2.886,12.059,1.315,24.216,2.977,36.468,3.608,6.292.324,12.637-.032,18.934-.114,6.307-.083,12.471.496,18.747.716,12.624.442,25.434.211,38.074.064,25.559-.297,51.019-1.706,76.499-2.761Z"/>
  <path class="cls-1" d="M195.895,88.98c6.46-.167,12.931-.197,19.396-.119,6.231.076,12.386.376,18.609.032,6.088-.336,12.095-1.03,18.159-1.469,12.659-.917,25.293-.404,37.91.446,7.81.526,15.573,1.173,23.429,1.422v-.765c-2.833-.079-5.66-.18-8.468-.36-12.623-.809-25.177-1.992-37.916-2.032-6.046-.019-12.101.278-18.082.761-6.199.5-12.351,1.178-18.613,1.388-6.272.21-12.627-.19-18.907-.229-6.432-.04-12.96-.043-19.371.278-12.289.614-24.54,1.487-36.88,1.723-12.352.236-24.628-.564-36.92-1.135-6.373-.296-12.71-.749-18.928-1.604-5.864-.807-11.88-1.476-17.833-2.043-12.13-1.156-24.473-.373-36.698-.202C29.857,85.281,14.927,85.276,0,85.379v.642c9.77.052,19.541.027,29.309-.03,12.837-.075,25.65-.467,38.479-.606,12.362-.134,24.359,2.027,36.386,3.311,5.829.622,11.759.903,17.668,1.157,6.12.262,12.226.655,18.349.877,12.353.446,24.728-.13,37.018-.81,6.22-.345,12.44-.779,18.685-.941Z"/>
  <path class="cls-1" d="M313.397,100.842v-.669c-3.276-.337-6.56-.634-9.888-.877-12.825-.936-25.687-1.451-38.618-1.492-12.946-.041-25.891.161-38.837.012-12.811-.147-25.541-.875-38.25-1.755-12.71-.88-25.385-1.915-38.107-2.744-6.295-.411-12.618-.824-18.945-1.033-6.258-.207-12.532-.195-18.789-.42-11.767-.423-23.004-2.805-34.917-2.033-6.323.41-12.54.993-18.911,1.2-6.262.203-12.54.207-18.809.147-9.17-.088-18.317-.414-27.482-.57-3.944-.067-7.907-.067-11.845.077v.763c7.167-.249,14.416-.034,21.555.173,12.412.36,24.918.562,37.333.16,6.362-.206,12.573-.813,18.887-1.222,5.885-.381,11.782.052,17.572.644,5.794.593,11.47,1.253,17.361,1.463,6.256.223,12.532.208,18.79.412,12.715.416,25.416,1.469,38.034,2.408,12.692.944,25.382,1.905,38.138,2.535,25.759,1.274,51.634-.126,77.399.952,9.436.395,19.02.876,28.328,1.868Z"/>
  <path class="cls-1" d="M283.518,104.628c9.933-.25,19.927-.333,29.88-.064v-.656c-21.349-.682-42.772.448-64.121,1.09-6.125.184-11.986.323-18.032-.376-5.171-.598-10.189-1.543-15.391-2.066-5.68-.571-11.571-.534-17.317-.769-6.4-.263-12.78-.645-19.113-1.23-5.888-.545-12.057-.558-18.01-.62-6.277-.065-12.557-.012-18.834.01-6.237.022-12.475.007-18.706-.167-6.304-.176-12.538-.605-18.862-.587-6.335.019-12.669.326-18.958.736-5.923.385-11.935-.043-17.833-.363-12.646-.686-25.375-.178-37.984.542C20.119,100.683,10.05,101.506,0,102.339v.568c8.537-.591,17.082-1.219,25.625-1.764,12.6-.804,25.53-1.523,38.213-1.032,5.995.232,11.948.734,17.97.712,6.223-.022,12.45-.651,18.676-.806,6.367-.159,12.624.075,18.964.362,6.19.281,12.408.332,18.615.336,12.505.009,25.027-.238,37.503.375,6.201.305,12.342.937,18.55,1.249,6.102.307,12.24.377,18.337.698,5.437.286,10.686,1.253,15.964,1.982,5.401.746,10.64.989,16.189.847,12.978-.331,25.932-.914,38.911-1.241Z"/>
  <path class="cls-1" d="M293.525,106.931c6.286.067,12.558.371,18.821.658.35.016.701.032,1.051.048v-.877c-6.875-.296-13.758-.547-20.633-.62-12.637-.134-25.213.966-37.808,1.387-6.168.206-12.306.258-18.449-.154-5.408-.363-10.725-1.048-16.059-1.65-11.015-1.243-22.406-1.083-33.597-1.161-6.179-.043-12.331.039-18.502.065-.147,0-.146.124,0,.127,6.425.164,12.837.378,19.273.497,6.424.12,12.849.222,19.273.349,10.292.204,20.117,1.911,30.306,2.596,12.374.832,25.066-.189,37.407-.795,6.304-.309,12.586-.539,18.918-.471Z"/>
  <path class="cls-1" d="M104.466,99.362c-9.153-.049-18.284-.055-27.438-.227-8.491-.159-17.112-.427-25.523.406-.262.026-.268.276,0,.299,3.821.324,7.962-.301,11.827-.297,4.567.004,9.133.092,13.696.178,9.078.17,18.438.493,27.454-.291.07-.006.05-.067-.016-.068h0Z"/>
  <path class="cls-1" d="M88.287,99.434c-4.168-.36-8.56-.23-12.769-.269-2.253-.021-4.506-.041-6.759-.058-2.201-.016-4.649-.189-6.797.108-.32.044-.319.318,0,.362,1.924.268,4.074.143,6.048.152,2.252.011,4.504.028,6.756.046,4.443.034,9.115.253,13.521-.122.194-.017.194-.202,0-.219h0Z"/>
  <path class="cls-1" d="M88.018,99.448c-2.77-.458-5.966-.25-8.818-.204-2.86.046-6.087-.127-8.874.237-.371.048-.375.375,0,.422,2.786.351,6.036.04,8.874-.021,2.885-.062,5.986.091,8.818-.241.179-.021.161-.166,0-.192h0Z"/>
  <path class="cls-1" d="M88.144,99.215c-2.424.389-4.647.519-7.166.447-2.061-.059-4.459-.387-6.462-.034-.349.061-.389.369,0,.419,2.235.284,4.813.216,7.106.279,2.264.062,4.877.002,6.78-.767.295-.119.128-.405-.258-.344h0Z"/>
  <path class="cls-1" d="M86.924,99.55c-4.518.125-9.123-.124-13.614.14-.34.02-.339.276,0,.296,4.456.276,9.255.258,13.681-.159.282-.027.214-.285-.067-.278h0Z"/>
  <path class="cls-1" d="M199.506,114.779c4.807.3,9.724.118,14.55.049,5.048-.072,10.094-.169,15.143-.204,5.045-.035,10.092.006,15.13.157,4.04.121,8.758.803,12.636-.121.228-.054.102-.252-.121-.251-2.043.013-4.049.174-6.101.139-2.403-.041-4.772-.296-7.173-.374-4.784-.156-9.58-.172-14.371-.144-4.795.028-9.591.113-14.383.205-5.088.097-10.25.044-15.31.367-.201.013-.201.163,0,.176h0Z"/>
  <path class="cls-1" d="M225.126,114.473c3.011.503,5.987.67,9.125.659,1.788-.006,3.576-.057,5.362-.099,1.478-.035,3.038.021,4.475-.193.262-.039.266-.261,0-.299-2.624-.371-5.802.003-8.484.061-3.428.074-7.032.122-10.403-.282-.177-.021-.25.124-.075.153h0Z"/>
  <path class="cls-1" d="M237.283,114.685c-2.153-.259-4.288-.357-6.489-.357-2.115,0-4.432-.074-6.503.184-.315.039-.32.322,0,.359,1.867.218,3.888.052,5.783.012,2.377-.05,4.772-.054,7.134.114.317.023.383-.274.075-.311h0Z"/>
  <path class="cls-1" d="M233.804,114.237c-3.427-.01-6.894-.054-10.262.35-.212.025-.167.222.051.213,3.407-.142,6.794-.232,10.211-.243.368-.001.368-.319,0-.32h0Z"/>
  <path class="cls-1" d="M286.691,131.986c-7.129-.191-13.905-.336-20.964.402-3.572.373-7.109.844-10.69,1.192-3.291.32-6.561.267-9.681,1.038-.486.12-.131.533.35.466,3.2-.444,6.402-.578,9.636-.883,3.341-.314,6.637-.771,9.951-1.161,7.111-.837,14.182-.772,21.398-.938.135-.003.134-.113,0-.117h0Z"/>
  <path class="cls-1" d="M251.87,151.967c-3.976-.207-7.877-.129-11.85.114-3.977.243-7.861.761-11.853.955-3.965.192-7.942.253-11.893.536-3.741.269-7.64.585-10.836,1.769-.168.062-.063.21.137.183,3.82-.512,7.525-1.089,11.438-1.373,3.945-.286,7.935-.333,11.895-.528,3.747-.185,7.386-.692,11.111-.96,3.931-.282,7.909-.326,11.85-.54.177-.01.178-.146,0-.155h0Z"/>
  <path class="cls-1" d="M237.208,151.959c-2.898-.157-5.674-.026-8.547.213-2.935.244-6.259.375-9.077.884-.347.062-.254.317.081.338,2.543.16,5.345-.314,7.841-.559,3.202-.314,6.446-.642,9.701-.704.201-.004.194-.162,0-.172h0Z"/>
  <path class="cls-1" d="M236.684,152.113c-2.156-.157-4.357.086-6.492.259-2.38.193-4.875.223-7.221.501-.35.042-.361.365,0,.402,1.994.204,4.088-.037,6.073-.205,2.546-.216,5.198-.413,7.678-.802.165-.026.111-.145-.038-.156h0Z"/>
  <path class="cls-1" d="M236.422,152.272c-3.781-.141-8.722-.201-12.196.804-.262.076-.145.325.152.315,1.725-.058,3.446-.349,5.153-.507,2.263-.21,4.603-.373,6.891-.477.153-.007.155-.129,0-.134h0Z"/>
  <path class="cls-1" d="M310.255,88.732c-1.915.047-3.937-.087-5.864-.097-2.21-.012-4.419-.09-6.622-.186-4.195-.183-8.369-.495-12.542-.791-8.464-.601-16.819-.939-25.35-.656-8.706.29-17.347.988-26.035,1.391-4.247.197-8.458.286-12.712.114-4.188-.17-8.266-.466-12.461-.348-.48.013-.476.4,0,.417,4.152.151,8.308.447,12.461.633,4.251.19,8.468.075,12.712-.111,8.695-.381,17.331-1.11,26.035-1.431,8.523-.314,16.887.064,25.35.613,4.176.271,8.35.551,12.542.733,1.959.085,3.923.134,5.888.157,2.272.027,4.368-.171,6.598-.286.17-.009.176-.156,0-.152h0Z"/>
  <path class="cls-1" d="M300.64,88.591c-2.872-1.167-7.447-.636-10.775-.96-2.421-.236-4.83-.505-7.257-.721-2.18-.194-4.543-.439-6.713-.138-.224.031-.216.216,0,.249,2.065.316,4.294.334,6.408.51,2.43.203,4.838.483,7.259.717,3.626.35,7.353.23,11.005.493.158.012.174-.11.073-.151h0Z"/>
  <path class="cls-1" d="M288.826,87.403c-3.356-.415-6.8-.769-10.251-.612-.242.011-.24.198,0,.21,3.412.177,6.803.149,10.171.565.189.023.269-.139.08-.163h0Z"/>
  <path class="cls-1" d="M188.479,127.571c-2.267.206-4.612.278-6.897.476-2.514.217-5.027.437-7.544.644-5.223.43-10.461.795-15.711,1.106-5.035.297-10.079.491-15.124.721-4.891.224-9.762.571-14.661.74-4.71.163-9.246.027-13.863-.539-4.721-.579-9.318-1.455-13.919-2.275-4.018-.716-7.958-1.398-11.871-2.285-3.627-.822-7.182-1.588-11.131-1.435-.259.01-.263.223,0,.228,4.149.067,8.248,1.183,11.997,2.068,3.938.929,8.022,1.555,12.088,2.283,4.594.823,9.189,1.648,13.915,2.2,4.481.523,8.957.539,13.511.387,4.899-.164,9.77-.528,14.659-.759,5.056-.239,10.11-.451,15.156-.757,4.839-.294,9.666-.647,14.48-1.048,2.512-.209,5.022-.428,7.52-.682,2.525-.256,4.968-.662,7.453-.951.145-.017.081-.136-.06-.123h0Z"/>
  <path class="cls-1" d="M156.366,130.597c-2.146-.253-4.444-.089-6.612.01-2.46.112-4.909.291-7.357.46-2.468.17-4.937.337-7.412.469-2.21.118-4.618.022-6.736.422-.15.028-.153.145,0,.173,2.128.385,4.549.152,6.736.046,2.478-.119,4.945-.301,7.412-.479,2.45-.177,4.9-.347,7.357-.489,2.186-.126,4.465-.095,6.612-.365.216-.027.219-.22,0-.246h0Z"/>
  <path class="cls-1" d="M151.855,130.672c-4.588-.122-9.517.04-13.956.769-.314.052-.265.341.079.328,4.644-.166,9.217-.833,13.876-1.001.11-.004.111-.093,0-.096h0Z"/>
</svg>